<svg width="38" height="38" viewBox="0 0 38 38" fill="none" xmlns="http://www.w3.org/2000/svg">
<path d="M35.6666 27.2001V32.2001C35.6685 32.6642 35.5734 33.1237 35.3874 33.549C35.2015 33.9743 34.9287 34.3561 34.5867 34.6699C34.2447 34.9836 33.8409 35.2226 33.4012 35.3713C32.9614 35.52 32.4955 35.5752 32.0332 35.5334C26.9046 34.9761 21.9782 33.2237 17.6499 30.4167C13.623 27.8579 10.2088 24.4437 7.64991 20.4167C4.83321 16.0688 3.08031 11.1184 2.53324 5.96675C2.49159 5.50586 2.54637 5.04135 2.69408 4.60279C2.84179 4.16423 3.07919 3.76123 3.39119 3.41945C3.70318 3.07767 4.08292 2.8046 4.50623 2.61762C4.92954 2.43064 5.38714 2.33385 5.84991 2.33341H10.8499C11.6588 2.32545 12.4429 2.61188 13.0562 3.1393C13.6695 3.66672 14.07 4.39916 14.1832 5.20008C14.3943 6.80019 14.7857 8.37129 15.3499 9.88341C15.5741 10.48 15.6227 11.1283 15.4898 11.7515C15.3568 12.3748 15.048 12.9469 14.5999 13.4001L12.4832 15.5167C14.8558 19.6893 18.3107 23.1442 22.4832 25.5167L24.5999 23.4001C25.0531 22.952 25.6252 22.6432 26.2484 22.5102C26.8717 22.3773 27.52 22.4258 28.1166 22.6501C29.6287 23.2143 31.1998 23.6057 32.7999 23.8167C33.6095 23.931 34.3489 24.3388 34.8775 24.9626C35.406 25.5864 35.6869 26.3827 35.6666 27.2001Z" stroke="white" stroke-width="3.33333" stroke-linecap="round" stroke-linejoin="round"/>
</svg>
