<svg width="392" height="251" viewBox="0 0 392 251" fill="none" xmlns="http://www.w3.org/2000/svg">
<path d="M311.921 372.175L500 263.587L188.079 83.5005L0 192.087L311.921 372.175Z" fill="#2516DF"/>
<path d="M492.964 263.588L188.082 87.5646L7.03906 192.086L311.923 368.112L492.964 263.588Z" fill="#A9A2F6"/>
<path d="M253.43 332.788L309.697 300.302L368.183 334.067L311.913 366.554L253.43 332.788ZM188.721 230.458L240.615 260.418L184.348 292.903L132.453 262.942L188.721 230.458ZM362.662 189.955L308.044 221.486L256.151 191.526L310.768 159.993L362.662 189.955ZM377.127 261.373L431.743 229.839L490.227 263.604L435.609 295.137L377.127 261.373ZM372.996 263.756L431.481 297.521L372.31 331.683L313.827 297.918L372.996 263.756ZM312.173 223.871L366.789 192.337L427.613 227.455L372.996 258.987L312.173 223.871ZM244.745 258.034L192.85 228.073L252.022 193.91L303.915 223.871L244.745 258.034ZM305.569 297.918L249.3 330.404L188.477 295.288L244.745 262.801L305.569 297.918ZM248.874 260.418L308.044 226.255L368.868 261.373L309.697 295.534L248.874 260.418ZM366.815 187.582L366.803 187.562L366.791 187.57L310.768 155.223L124.194 262.942L311.913 371.323L498.487 263.604L366.815 187.582Z" fill="#F0EFFB"/>
<path d="M52.167 131.888V135.618C52.2843 136.651 53.0592 137.729 54.5367 138.573C56.5546 139.746 59.2991 140.192 61.6217 139.84C62.606 139.7 63.5212 139.418 64.272 138.972L106.357 114.669C107.46 114.06 107.976 113.216 108.023 112.346L108.046 108.711L105.372 108.922C102.51 107.398 98.3578 107.256 95.9409 108.664L60.2834 129.238L54.3964 132.639L54.2791 131.888H52.167Z" fill="#C7784C"/>
<path d="M52.167 131.888V135.618C52.2843 136.651 53.0592 137.729 54.5367 138.573C56.5546 139.746 59.2992 140.192 61.6217 139.84V129.238H60.2834L54.3964 132.639L54.2791 131.888H52.167Z" fill="#DFCFB5"/>
<path d="M64.2715 135.461L106.366 111.158C108.861 109.718 108.547 107.202 105.667 105.54V105.539C102.786 103.876 98.4295 103.696 95.9348 105.136L53.8401 129.44C51.3455 130.88 51.659 133.395 54.5394 135.058C57.4199 136.721 61.7768 136.902 64.2715 135.461Z" fill="white"/>
<path d="M253.839 126.286L253.826 126.263L253.811 126.269L188.691 88.6718L8.72803 192.295L234.922 322.837L414.884 219.215L253.839 126.286Z" fill="#E8E6F9"/>
<path d="M414.884 214.022L365.745 185.651V157.005L414.884 185.376V214.022ZM8.72803 186.626V136.504L51.8641 111.6V142.444V162.17L8.72803 186.626Z" fill="url(#paint0_linear_56_11198)"/>
<path d="M414.883 219.201L365.744 190.842V186.965L366.79 187.57L366.802 187.562L366.815 187.582L414.883 215.335V219.201Z" fill="url(#paint1_linear_56_11198)"/>
<path d="M130.436 134.805L51.8638 89.4415L177.997 16.569L256.569 61.9333L130.436 134.805Z" fill="#A8A2F6"/>
<path d="M130.436 228.867V134.805L256.569 61.9336V155.995L130.436 228.867Z" fill="#7065F0"/>
<path d="M165.389 204.329L137.859 220.225V157.718L165.389 141.824V204.329Z" fill="#F7F7FD"/>
<path d="M51.8638 183.503V89.4417L130.436 134.805V228.867L51.8638 183.503Z" fill="#A8A2F6"/>
<path d="M62.5098 111.833V172.31L73.0288 178.371V117.893L62.5098 111.833Z" fill="#F7F7FD"/>
<path d="M77.2246 120.324V180.801L87.7425 186.861V126.383L77.2246 120.324Z" fill="#F7F7FD"/>
<path d="M91.9395 128.813V189.291L102.459 195.351V134.874L91.9395 128.813Z" fill="#F7F7FD"/>
<path d="M106.654 137.303V197.78L117.172 203.84V143.363L106.654 137.303Z" fill="#F7F7FD"/>
<path d="M280.904 173.515L171.724 110.889L256.564 61.9282L365.744 124.556L280.904 173.515Z" fill="#7065F0"/>
<path d="M280.904 267.654V173.516L365.744 124.557V218.693L280.904 267.654Z" fill="#7065F0"/>
<path d="M171.724 205.026V110.89L280.904 173.516V267.654L171.724 205.026Z" fill="#A8A2F6"/>
<path d="M273.377 256.688L179.25 202.345V140.127L273.377 194.471V256.688Z" fill="#F7F7FD"/>
<path d="M151.491 134.399L147.195 129.527L166.75 118.229L171.724 121.082V123.192L151.491 134.399Z" fill="#5245ED"/>
<path d="M171.724 123.192V121.082L171.732 121.088L171.734 123.187L171.724 123.192Z" fill="#013BA1"/>
<path d="M48.5513 90.2939L94.1819 78.1155L220.316 5.24295L174.685 17.4214L48.5513 90.2939Z" fill="#5598E9"/>
<path d="M132.488 138.024L94.1816 78.1147L220.316 5.24222L258.621 65.1514L132.488 138.024Z" fill="#3F461D"/>
<path d="M258.622 60.743V65.1514L132.489 138.024V133.614L258.622 60.743Z" fill="#7065F0"/>
<path d="M105.442 110.638L91.1065 90.3176L63.8702 96.3734L51.8638 89.4419L54.0866 88.8171L94.1821 78.1161L113.475 108.289L105.442 110.638Z" fill="#5245ED"/>
<path d="M51.8671 99.0415L51.8638 89.441L63.8702 96.3726L51.8671 99.0415Z" fill="#5245ED"/>
<path d="M54.0864 88.8169L94.0065 77.603L94.1819 77.8781V78.1159L54.0864 88.8169Z" fill="#073CAE"/>
<path d="M48.5513 85.8848L94.1819 73.7074L220.316 0.834915L174.685 13.0123L48.5513 85.8848Z" fill="#CBC7FA"/>
<path d="M132.488 133.615L94.1816 73.7071L220.316 0.834625L258.621 60.7438L132.488 133.615Z" fill="#A8A2F6"/>
<path d="M158.158 100.885L136.54 93.1585L136.542 78.9633L154.522 85.6011L162.666 94.8005L158.158 100.885Z" fill="#5245ED"/>
<path d="M136.539 77.8647L128.723 73.3522L136.491 68.867L144.307 73.3807L136.539 77.8647Z" fill="#A8A2F6"/>
<path d="M136.541 77.8228L128.146 72.9737L136.489 68.1565L144.886 73.0044L136.541 77.8228Z" fill="#CBC7FA"/>
<path d="M136.542 79.2803L144.886 74.4619V73.0042L136.542 77.8225V79.2803Z" fill="#2516DF"/>
<path d="M128.146 74.4323L136.541 79.2803V77.8225L128.146 72.9735V74.4323Z" fill="#A8A2F6"/>
<path d="M142.024 73.3706L136.53 76.5503L136.512 76.5317L131.017 73.353L136.494 70.192L136.512 70.2106L142.024 73.3706Z" fill="#2516DF"/>
<path d="M142.024 73.3706L136.529 76.5503L136.512 76.5317V70.2106L142.024 73.3706Z" fill="#A8A2F6"/>
<path d="M136.54 93.1577L144.307 88.6737V73.3802L136.54 77.8642V93.1577Z" fill="#2516DF"/>
<path d="M128.725 81.0154L136.54 93.1577V77.8642L128.725 73.3517V81.0154Z" fill="#A8A2F6"/>
<path d="M136.544 69.7974L135.44 69.1594L136.536 68.527L137.64 69.1638L136.544 69.7974Z" fill="#A8A2F6"/>
<path d="M136.544 77.4512L137.64 76.8187V69.1638L136.544 69.7973V77.4512Z" fill="#2516DF"/>
<path d="M135.44 76.8143L136.544 77.4512V69.7973L135.44 69.1594V76.8143Z" fill="#A8A2F6"/>
<path d="M136.544 69.7974L135.8 69.3677L136.531 68.9479L137.282 69.371L136.544 69.7974Z" fill="#096EA8"/>
<path d="M136.552 72.146L136.544 72.1416V69.7982L137.282 69.3718L137.637 69.5713V71.5223L136.552 72.146Z" fill="#093B7D"/>
<path d="M136.544 72.1411L135.444 71.501V69.5708L135.799 69.368L136.544 69.7977V72.1411Z" fill="#096EA8"/>
<path d="M143.215 65.9414L142.111 65.3046L143.207 64.6711L144.312 65.3079L143.215 65.9414Z" fill="#A8A2F6"/>
<path d="M143.214 73.5952L144.312 72.9628V65.3078L143.214 65.9413V73.5952Z" fill="#2516DF"/>
<path d="M142.111 72.9584L143.215 73.5952V65.9413L142.111 65.3045V72.9584Z" fill="#A8A2F6"/>
<path d="M143.215 65.9414L142.465 65.5096L142.945 65.2279L143.691 65.6663L143.215 65.9414Z" fill="#096EA8"/>
<path d="M143.214 68.2954V65.9421L143.69 65.667L144.312 66.032V67.6619L143.214 68.2954Z" fill="#093B7D"/>
<path d="M143.211 68.2969L142.121 67.7905V65.7112L142.465 65.5096L143.215 65.9414V68.2947L143.211 68.2969Z" fill="#096EA8"/>
<path d="M129.828 65.9219L128.723 65.2851L129.82 64.6515L130.924 65.2894L129.828 65.9219Z" fill="#A8A2F6"/>
<path d="M129.828 73.5771L130.924 72.9436V65.2897L129.828 65.9222V73.5771Z" fill="#2516DF"/>
<path d="M128.723 72.9392L129.828 73.5771V65.9222L128.723 65.2853V72.9392Z" fill="#A8A2F6"/>
<path d="M129.828 65.9219L129.337 65.6391L130.077 65.2072L130.564 65.4977L129.828 65.9219Z" fill="#096EA8"/>
<path d="M129.828 68.2729V65.9219L130.564 65.4977L130.921 65.7114V67.6624L129.828 68.2729Z" fill="#093B7D"/>
<path d="M129.825 68.2739L128.73 67.6404V65.9919L129.337 65.639L129.828 65.9218V68.2728L129.825 68.2739Z" fill="#096EA8"/>
<path d="M136.545 69.7861L127.31 64.4537L136.487 59.1553L145.723 64.4866L136.545 69.7861Z" fill="white"/>
<path d="M136.545 71.3906L145.723 66.0911V64.4875L136.545 69.7871V71.3906Z" fill="#A8A2F6"/>
<path d="M127.31 66.0582L136.545 71.3906V69.7871L127.31 64.4547V66.0582Z" fill="#CBC7FA"/>
<path d="M275.868 180.822L166.688 118.194L200.841 86.4081L310.021 149.036L275.868 180.822Z" fill="#5598E9"/>
<path d="M261.775 64.1524L221.696 49.6414L330.877 112.269L370.955 126.78L261.775 64.1524Z" fill="#DDB79B"/>
<path d="M330.878 112.269L310.021 149.036L200.841 86.4082L221.697 49.6415L330.878 112.269Z" fill="#433E44"/>
<path d="M280.907 185.797L280.904 176.137V185.706L280.907 185.703V185.797Z" fill="#02288E"/>
<path d="M280.907 185.797L171.733 123.187V121.09L275.868 180.822L280.903 176.137V185.795" fill="#5245ED"/>
<path d="M171.733 113.499V110.941L171.909 110.841L173.568 111.792L171.733 113.499Z" fill="#02288E"/>
<path d="M171.733 110.941V110.74L171.909 110.841L171.733 110.941Z" fill="#0852BE"/>
<path d="M275.868 180.822L171.733 121.089V113.499L173.568 111.792L280.907 173.35L280.903 176.136L275.868 180.822Z" fill="#073CAE"/>
<path d="M288.313 169.241L310.021 149.036L330.878 112.269L329.02 111.203L330.878 112.269L365.386 124.763L355.124 130.685L330.878 121.918L311.684 155.752L288.313 169.241Z" fill="#5245ED"/>
<path d="M280.907 185.703V176.133L288.313 169.241L311.683 155.753L310.021 158.685L280.907 185.703ZM365.741 134.525L355.123 130.686L365.386 124.764L365.741 124.892V134.525Z" fill="#5245ED"/>
<path d="M280.907 176.133V173.35L280.904 167.252L304.158 145.672L310.021 149.036L288.313 169.241L280.907 176.133Z" fill="#033093"/>
<path d="M365.74 123.788L330.737 103.709L330.878 103.464L365.74 120.538V123.788Z" fill="url(#paint2_linear_56_11198)"/>
<path d="M365.741 124.893L365.385 124.764L330.878 112.27L329.019 111.204L330.878 107.928L328.967 106.831L330.737 103.711L365.741 123.79V124.893Z" fill="#073962"/>
<path d="M310.021 149.036L304.158 145.672L307.05 142.988L310.021 144.692L329.019 111.202L330.878 112.269L310.021 149.036Z" fill="#02132B"/>
<path d="M280.904 185.707V176.137L280.907 176.134V185.704L280.904 185.707Z" fill="#000D5A"/>
<path d="M280.904 176.138V173.349L280.907 173.351V176.134L280.904 176.138Z" fill="#00136E"/>
<path d="M275.868 176.48L166.688 113.851L200.841 82.0663L310.021 144.694L275.868 176.48Z" fill="#A8A2F6"/>
<path d="M261.775 59.8081L221.696 45.2983L330.877 107.926L370.955 122.436L261.775 59.8081Z" fill="#A8A2F6"/>
<path d="M330.878 107.927L310.021 144.692L200.841 82.066L221.697 45.2993L330.878 107.927Z" fill="#CBC7FA"/>
<path d="M94.1819 73.707V78.1154L48.5513 90.2939V85.8844L94.1819 73.707Z" fill="#A8A2F6"/>
<path d="M94.1816 73.7063V78.1147L132.488 138.024V133.614L94.1816 73.7063Z" fill="#A8A2F6"/>
<path d="M370.956 126.78V122.436L330.878 107.926L310.021 144.693L275.868 176.479V180.822L310.021 149.036L330.878 112.269L370.956 126.78Z" fill="#2516DF"/>
<path d="M275.868 180.822V176.479L166.688 113.85V118.194L275.868 180.822Z" fill="#A8A2F6"/>
<path d="M231.376 94.3784V71.9133L225.213 68.3521L223.93 56.2942H231.376L254.28 69.0471L253.891 72.3484L248.013 81.9095L231.376 94.3784Z" fill="#5245ED"/>
<path d="M238.888 68.4815V81.2212L231.376 94.3784V71.9133L238.888 68.4815Z" fill="#2516DF"/>
<path d="M231.376 94.3784L216.483 85.7732V63.3091L231.376 71.9133V94.3784Z" fill="#A8A2F6"/>
<path d="M229.291 71.4058L212.547 61.7307L224.207 55.2091L240.952 64.8841L229.291 71.4058Z" fill="#CBC7FA"/>
<path d="M229.291 70.6611L212.547 60.985L224.207 54.4633L240.952 64.1384L229.291 70.6611Z" fill="white"/>
<path d="M230.411 73.2085L238.889 68.4811L240.952 64.8849L229.291 71.4066L230.411 73.2085Z" fill="#2516DF"/>
<path d="M212.547 61.7315L213.668 63.5323L230.411 73.2085L229.291 71.4066L212.547 61.7315Z" fill="#A8A2F6"/>
<path d="M229.291 71.4058V70.6604L240.952 64.1377V64.8841L229.291 71.4058Z" fill="#A8A2F6"/>
<path d="M229.291 71.4058V70.6604L212.547 60.9843V61.7307L229.291 71.4058Z" fill="#CBC7FA"/>
<path d="M217.807 85.3989V67.5746L230.055 74.641V92.4653L217.807 85.3989Z" fill="#A8A2F6"/>
<path d="M219.242 70.0662V84.5716L228.619 89.9741V75.4687L219.242 70.0662Z" fill="white"/>
<path d="M220.858 70.9989V83.8843L228.619 88.353V89.9741L219.242 84.5727V70.0662L220.858 70.9989Z" fill="#2516DF"/>
<path d="M220.858 83.8843L219.242 84.5727L228.619 89.9741V88.353L220.858 83.8843Z" fill="#CBC7FA"/>
<path d="M222.052 84.5732H219.242L220.858 83.8849V70.9995L222.084 71.7043L222.052 84.5732Z" fill="#0C59BE"/>
<path d="M262.833 112.389L257.493 94.111L255.387 74.305H262.833L285.738 87.0578L285.348 90.3592L279.469 99.9202L262.833 112.389Z" fill="#5245ED"/>
<path d="M270.345 86.4911V99.2319L262.833 112.389V89.9251L270.345 86.4911Z" fill="#2516DF"/>
<path d="M262.833 112.389L247.94 103.784V81.3199L262.833 89.9251V112.389Z" fill="#A8A2F6"/>
<path d="M260.748 89.4189L244.003 79.7439L255.665 73.2223L272.408 82.8984L260.748 89.4189Z" fill="#CBC7FA"/>
<path d="M260.748 88.6709L244.003 78.9958L255.665 72.4742L272.408 82.1492L260.748 88.6709Z" fill="white"/>
<path d="M261.867 91.2202L270.345 86.4917L272.408 82.8977L260.748 89.4182L261.867 91.2202Z" fill="#2516DF"/>
<path d="M244.003 79.7432L245.123 81.544L261.867 91.2202L260.748 89.4182L244.003 79.7432Z" fill="#A8A2F6"/>
<path d="M260.748 89.4189V88.6725L272.408 82.1509V82.8984L260.748 89.4189Z" fill="#A8A2F6"/>
<path d="M260.748 89.4189V88.6725L244.003 78.9975V79.7439L260.748 89.4189Z" fill="#CBC7FA"/>
<path d="M249.262 103.411V85.5868L261.511 92.6532V110.478L249.262 103.411Z" fill="#A8A2F6"/>
<path d="M250.698 88.0783V102.584L260.075 107.986V93.4809L250.698 88.0783Z" fill="white"/>
<path d="M252.314 89.0111V101.898L260.075 106.365V107.986L250.698 102.585V88.0783L252.314 89.0111Z" fill="#2516DF"/>
<path d="M252.314 101.898L250.698 102.585L260.075 107.986V106.365L252.314 101.898Z" fill="#CBC7FA"/>
<path d="M250.698 102.584H253.51L253.541 89.715L252.314 89.0102V101.897L250.698 102.584Z" fill="#2516DF"/>
<path d="M294.29 130.401L288.95 112.123L286.843 92.3172H294.29L317.194 105.07L316.804 108.371L310.924 117.932L294.29 130.401Z" fill="#5245ED"/>
<path d="M301.801 104.504V117.245L294.29 130.401V107.937L301.801 104.504Z" fill="#2516DF"/>
<path d="M294.29 130.401L279.397 121.796V99.3321L294.29 107.937V130.401Z" fill="#A8A2F6"/>
<path d="M292.203 107.43L275.459 97.7551L287.121 91.2335L303.864 100.91L292.203 107.43Z" fill="#CBC7FA"/>
<path d="M292.203 106.684L275.459 97.0091L287.121 90.4874L303.864 100.164L292.203 106.684Z" fill="white"/>
<path d="M293.323 109.232L301.801 104.505L303.864 100.91L292.203 107.43L293.323 109.232Z" fill="#2516DF"/>
<path d="M275.459 97.7554L276.58 99.5563L293.323 109.232L292.203 107.43L275.459 97.7554Z" fill="#A8A2F6"/>
<path d="M292.203 107.43V106.684L303.864 100.163V100.91L292.203 107.43Z" fill="#A8A2F6"/>
<path d="M292.203 107.43V106.684L275.459 97.0087V97.7551L292.203 107.43Z" fill="#CBC7FA"/>
<path d="M280.718 121.423V103.598L292.967 110.664V128.489L280.718 121.423Z" fill="#A8A2F6"/>
<path d="M282.154 106.091V120.595L291.531 125.998V111.493L282.154 106.091Z" fill="white"/>
<path d="M283.77 107.023V119.909L291.53 124.377V125.998L282.154 120.597V106.09L283.77 107.023Z" fill="#2516DF"/>
<path d="M283.77 119.909L282.154 120.597L291.53 125.998V124.377L283.77 119.909Z" fill="#CBC7FA"/>
<path d="M282.154 120.596H284.966L284.996 107.727L283.77 107.022V119.909L282.154 120.596Z" fill="#2516DF"/>
<defs>
<linearGradient id="paint0_linear_56_11198" x1="211.807" y1="52.3498" x2="211.807" y2="161.971" gradientUnits="userSpaceOnUse">
<stop stop-color="#FFFCF7"/>
<stop offset="1" stop-color="#E8E6F9"/>
</linearGradient>
<linearGradient id="paint1_linear_56_11198" x1="211.805" y1="52.3491" x2="211.805" y2="161.971" gradientUnits="userSpaceOnUse">
<stop stop-color="#E8E6F9"/>
<stop offset="1" stop-color="#D1CEF3"/>
</linearGradient>
<linearGradient id="paint2_linear_56_11198" x1="211.806" y1="52.3483" x2="211.806" y2="161.97" gradientUnits="userSpaceOnUse">
<stop stop-color="#0850A1"/>
<stop offset="1" stop-color="#074CA1"/>
</linearGradient>
</defs>
</svg>
