<svg width="16" height="17" viewBox="0 0 16 17" fill="none" xmlns="http://www.w3.org/2000/svg">
<g clip-path="url(#clip0_312_1254)">
<path d="M13.3334 7.16659C13.3334 10.4953 9.64075 13.9619 8.40075 15.0326C8.28523 15.1194 8.14461 15.1664 8.00008 15.1664C7.85555 15.1664 7.71493 15.1194 7.59941 15.0326C6.35941 13.9619 2.66675 10.4953 2.66675 7.16659C2.66675 5.7521 3.22865 4.39554 4.22885 3.39535C5.22904 2.39516 6.58559 1.83325 8.00008 1.83325C9.41457 1.83325 10.7711 2.39516 11.7713 3.39535C12.7715 4.39554 13.3334 5.7521 13.3334 7.16659Z" stroke="white" stroke-width="1.77778" stroke-linecap="round" stroke-linejoin="round"/>
<path d="M8.00008 9.16659C9.10465 9.16659 10.0001 8.27115 10.0001 7.16659C10.0001 6.06202 9.10465 5.16659 8.00008 5.16659C6.89551 5.16659 6.00008 6.06202 6.00008 7.16659C6.00008 8.27115 6.89551 9.16659 8.00008 9.16659Z" stroke="white" stroke-width="1.77778" stroke-linecap="round" stroke-linejoin="round"/>
</g>
<defs>
<clipPath id="clip0_312_1254">
<rect width="16" height="16" fill="white" transform="translate(0 0.5)"/>
</clipPath>
</defs>
</svg>
